<svg xmlns="http://www.w3.org/2000/svg" style="display: none;">
  <!-- 3D Cube Icon -->
  <symbol id="cube-icon" viewBox="0 0 24 24">
    <path fill="currentColor" d="M12 2l8 4.5v11L12 22l-8-4.5v-11L12 2zm0 2.311L6.5 6.5 12 8.689 17.5 6.5 12 4.311zM5 7.653v8.694L11 19.689v-8.694L5 7.653zm14 0L13 10.995v8.694L19 16.347V7.653z"/>
  </symbol>
  
  <!-- Palette Icon -->
  <symbol id="palette-icon" viewBox="0 0 24 24">
    <path fill="currentColor" d="M12 2C6.48 2 2 6.48 2 12s4.48 10 10 10c1.19 0 2.34-.21 3.41-.6.39-.14.59-.55.59-.98 0-.28-.11-.53-.29-.71-.18-.18-.43-.29-.71-.29h-2c-1.1 0-2-.9-2-2 0-.55.22-1.05.59-1.41.36-.36.86-.59 1.41-.59h3c2.76 0 5-2.24 5-5 0-5.52-4.48-10-10-10zm-5.5 9c-.83 0-1.5-.67-1.5-1.5S5.67 8 6.5 8s1.5.67 1.5 1.5S7.33 11 6.5 11zm3-4C8.67 7 8 6.33 8 5.5S8.67 4 9.5 4s1.5.67 1.5 1.5S10.33 7 9.5 7zm5 0c-.83 0-1.5-.67-1.5-1.5S13.67 4 14.5 4s1.5.67 1.5 1.5S15.33 7 14.5 7zm3 4c-.83 0-1.5-.67-1.5-1.5S16.67 8 17.5 8s1.5.67 1.5 1.5S18.33 11 17.5 11z"/>
  </symbol>
  
  <!-- Lightbulb Icon -->
  <symbol id="lightbulb-icon" viewBox="0 0 24 24">
    <path fill="currentColor" d="M12 2C8.13 2 5 5.13 5 9c0 2.38 1.19 4.47 3 5.74V17c0 .55.45 1 1 1h6c.55 0 1-.45 1-1v-2.26c1.81-1.27 3-3.36 3-5.74 0-3.87-3.13-7-7-7zm2.85 11.1l-.85.6V16h-4v-2.3l-.85-.6C7.8 12.16 7 10.63 7 9c0-2.76 2.24-5 5-5s5 2.24 5 5c0 1.63-.8 3.16-2.15 4.1zM12 20v1c0 .55-.45 1-1 1h-2c-.55 0-1-.45-1-1v-1h4z"/>
  </symbol>
  
  <!-- Film Icon -->
  <symbol id="film-icon" viewBox="0 0 24 24">
    <path fill="currentColor" d="M18 4l2 4h-3l-2-4h-2l2 4h-3l-2-4H8l2 4H7L5 4H4c-1.1 0-1.99.9-1.99 2L2 18c0 1.1.9 2 2 2h16c1.1 0 2-.9 2-2V4h-4zm-6.75 11.25L10 18l-1.25-2.75L6 14l2.75-1.25L10 10l1.25 2.75L14 14l-2.75 1.25z"/>
  </symbol>
  
  <!-- Compass Icon -->
  <symbol id="compass-icon" viewBox="0 0 24 24">
    <path fill="currentColor" d="M12 2C6.48 2 2 6.48 2 12s4.48 10 10 10 10-4.48 10-10S17.52 2 12 2zm-2 15l-5-5 5-5v10zm2 0V7l5 5-5 5z"/>
  </symbol>
  
  <!-- Gamepad Icon -->
  <symbol id="gamepad-icon" viewBox="0 0 24 24">
    <path fill="currentColor" d="M15 7.5V2H9v5.5l3 3 3-3zM7.5 9H2v6h5.5l3-3-3-3zM9 16.5V22h6v-5.5l-3-3-3 3zM16.5 9l-3 3 3 3H22V9h-5.5z"/>
  </symbol>
  
  <!-- Arrow Down Icon -->
  <symbol id="arrow-down" viewBox="0 0 24 24">
    <path fill="currentColor" d="M7.41 8.59L12 13.17l4.59-4.58L18 10l-6 6-6-6 1.41-1.41z"/>
  </symbol>
  
  <!-- External Link Icon -->
  <symbol id="external-link" viewBox="0 0 24 24">
    <path fill="currentColor" d="M19 19H5V5h7V3H5c-1.11 0-2 .9-2 2v14c0 1.1.89 2 2 2h14c1.11 0 2-.9 2-2v-7h-2v7zM14 3v2h3.59l-9.83 9.83 1.41 1.41L19 6.41V10h2V3h-7z"/>
  </symbol>
  
  <!-- Download Icon -->
  <symbol id="download" viewBox="0 0 24 24">
    <path fill="currentColor" d="M19 9h-4V3H9v6H5l7 7 7-7zM5 18v2h14v-2H5z"/>
  </symbol>
  
  <!-- Eye Icon -->
  <symbol id="eye" viewBox="0 0 24 24">
    <path fill="currentColor" d="M12 4.5C7 4.5 2.73 7.61 1 12c1.73 4.39 6 7.5 11 7.5s9.27-3.11 11-7.5c-1.73-4.39-6-7.5-11-7.5zM12 17c-2.76 0-5-2.24-5-5s2.24-5 5-5 5 2.24 5 5-2.24 5-5 5zm0-8c-1.66 0-3 1.34-3 3s1.34 3 3 3 3-1.34 3-3-1.34-3-3-3z"/>
  </symbol>
</svg>
